<svg width="31" height="31" viewBox="0 0 31 31" fill="none" xmlns="http://www.w3.org/2000/svg">
<path d="M4.83326 26.5502C6.38326 28.4167 9.26625 28.4167 15.0348 28.4167H15.9648C21.7334 28.4167 24.6177 28.4167 26.1677 26.5502M4.83326 26.5502C3.28326 24.6825 3.81542 21.8485 4.87846 16.1781C5.63409 12.1481 6.01125 10.1318 7.4463 8.94092M26.1677 26.5502C27.7177 24.6825 27.1855 21.8485 26.1225 16.1781C25.3669 12.1481 24.9884 10.1318 23.5534 8.94092M23.5534 8.94092C22.1196 7.75 20.0672 7.75 15.9661 7.75H15.0335C10.9325 7.75 8.88134 7.75 7.4463 8.94092" stroke="#052B08" stroke-width="2.2"/>
<path d="M11.625 7.74967V6.45801C11.625 5.43029 12.0333 4.44467 12.76 3.71797C13.4867 2.99127 14.4723 2.58301 15.5 2.58301C16.5277 2.58301 17.5133 2.99127 18.24 3.71797C18.9667 4.44467 19.375 5.43029 19.375 6.45801V7.74967" stroke="#052B08" stroke-width="2.2" stroke-linecap="round"/>
</svg>
