<svg width="33" height="33" viewBox="0 0 33 33" fill="none" xmlns="http://www.w3.org/2000/svg">
<path d="M22.9453 5.15625C20.2834 5.15625 17.9528 6.30094 16.5 8.23582C15.0472 6.30094 12.7166 5.15625 10.0547 5.15625C7.93576 5.15864 5.9043 6.00144 4.406 7.49975C2.90769 8.99805 2.06489 11.0295 2.0625 13.1484C2.0625 22.1719 15.4417 29.4757 16.0114 29.7773C16.1616 29.8581 16.3295 29.9004 16.5 29.9004C16.6705 29.9004 16.8384 29.8581 16.9886 29.7773C17.5583 29.4757 30.9375 22.1719 30.9375 13.1484C30.9351 11.0295 30.0923 8.99805 28.594 7.49975C27.0957 6.00144 25.0642 5.15864 22.9453 5.15625ZM16.5 27.6891C14.1462 26.3175 4.125 20.0694 4.125 13.1484C4.12705 11.5764 4.75244 10.0694 5.86403 8.95778C6.97561 7.84619 8.48267 7.2208 10.0547 7.21875C12.5619 7.21875 14.667 8.55422 15.5461 10.6992C15.6238 10.8884 15.756 11.0501 15.9258 11.164C16.0957 11.2778 16.2955 11.3386 16.5 11.3386C16.7045 11.3386 16.9043 11.2778 17.0742 11.164C17.244 11.0501 17.3762 10.8884 17.4539 10.6992C18.333 8.55035 20.4381 7.21875 22.9453 7.21875C24.5173 7.2208 26.0244 7.84619 27.136 8.95778C28.2476 10.0694 28.873 11.5764 28.875 13.1484C28.875 20.0591 18.8512 26.3162 16.5 27.6891Z" fill="#052B08"/>
</svg>
