<svg width="269" height="74" viewBox="0 0 269 74" fill="none" xmlns="http://www.w3.org/2000/svg">
<path d="M0.379262 3.11969H32.222V4.45442H23.0696L42.8045 56.1273L62.9207 4.45442H54.3403V3.11969H72.5498V4.45442H64.3507L37.4656 73.5741H34.7008L8.38761 4.45442H0.379262V3.11969ZM69.5638 3.11969H126.576V19.4224H125.336C125.018 18.3419 124.478 16.9754 123.715 15.3229C122.953 13.6068 121.872 11.9543 120.474 10.3653C119.139 8.77638 117.391 7.40988 115.23 6.26583C113.069 5.05822 110.432 4.45442 107.317 4.45442H92.1587V33.9137H97.4976C99.8493 33.9137 101.82 33.5959 103.409 32.9603C105.061 32.2612 106.428 31.3078 107.508 30.1002C108.589 28.829 109.478 27.3354 110.178 25.6193C110.877 23.8397 111.449 21.8694 111.894 19.7084H113.133V49.3584H111.894C111.449 47.5152 110.908 45.7356 110.273 44.0195C109.701 42.3034 108.906 40.8098 107.889 39.5386C106.873 38.2039 105.601 37.1552 104.076 36.3925C102.614 35.6298 100.771 35.2484 98.5464 35.2484H92.1587V69.6653H107.794C110.718 69.6653 113.355 69.1886 115.707 68.2352C118.059 67.2183 120.124 65.82 121.904 64.0404C123.747 62.2607 125.273 60.1951 126.48 57.8434C127.688 55.4282 128.609 52.8541 129.245 50.1211H130.484V71H69.5638V69.6653H78.3348V4.45442H69.5638V3.11969ZM156.004 33.9137H159.913C162.773 33.9137 165.03 33.5324 166.682 32.7697C168.335 32.007 169.574 30.99 170.4 29.7189C171.227 28.3841 171.735 26.8905 171.926 25.238C172.18 23.5855 172.307 21.9012 172.307 20.1851C172.307 17.3885 172.116 15.0051 171.735 13.0348C171.354 11.0009 170.718 9.34841 169.828 8.07724C168.938 6.74251 167.699 5.75736 166.11 5.12178C164.585 4.48619 162.614 4.1684 160.199 4.1684C159.5 4.1684 158.801 4.20018 158.102 4.26374C157.403 4.3273 156.703 4.39086 156.004 4.45442V33.9137ZM142.18 4.45442H133.409V3.11969H147.805C150.475 3.11969 153.112 3.08791 155.718 3.02435C158.324 2.89724 160.962 2.83368 163.631 2.83368C166.11 2.83368 168.716 3.08791 171.449 3.59638C174.246 4.10484 176.788 4.99466 179.076 6.26583C181.364 7.47344 183.239 9.12595 184.701 11.2234C186.226 13.3208 186.989 15.9585 186.989 19.1364C186.989 21.6787 186.417 23.8715 185.273 25.7147C184.129 27.4943 182.635 28.9562 180.792 30.1002C179.012 31.2443 177.01 32.1341 174.786 32.7697C172.561 33.3417 170.369 33.723 168.208 33.9137V34.3904C171.322 34.9624 174.087 35.5344 176.502 36.1065C178.981 36.6785 181.11 37.5365 182.89 38.6806C184.669 39.8246 186.067 41.4136 187.084 43.4475C188.165 45.4813 188.832 48.2143 189.086 51.6465C189.404 55.6507 189.658 58.8604 189.849 61.2756C190.04 63.6908 190.294 65.5658 190.612 66.9005C190.993 68.2352 191.47 69.125 192.042 69.5699C192.678 70.0148 193.567 70.2373 194.711 70.2373C195.983 70.2373 197.031 69.8877 197.858 69.1886C198.684 68.4259 199.415 67.7267 200.05 67.0912L201.004 67.9492C200.368 68.5848 199.732 69.1886 199.097 69.7606C198.525 70.2691 197.826 70.714 196.999 71.0953C196.237 71.4767 195.283 71.7627 194.139 71.9534C192.995 72.2076 191.565 72.3347 189.849 72.3347C186.353 72.3347 183.62 71.7945 181.65 70.714C179.68 69.5699 178.218 68.1717 177.265 66.5191C176.311 64.8666 175.707 63.087 175.453 61.1802C175.263 59.2099 175.135 57.3667 175.072 55.6507C174.945 53.0448 174.754 50.5342 174.5 48.119C174.309 45.6402 173.801 43.4475 172.974 41.5407C172.148 39.634 170.909 38.1086 169.256 36.9645C167.604 35.8205 165.284 35.2484 162.297 35.2484H156.004V69.6653H164.775V71H133.409V69.6653H142.18V4.45442ZM222.996 16.753L212.318 42.7801H234.246L222.996 16.753ZM191.725 69.6653H199.734L228.144 0.450242H230.718L260.75 69.6653H268.949V71H236.915V69.6653H245.782L234.723 44.1148H211.842L201.259 69.6653H209.744V71H191.725V69.6653Z" fill="#052B08"/>
</svg>
